<!DOCTYPE svg PUBLIC "-//W3C//DTD SVG 20010904//EN" "http://www.w3.org/TR/2001/REC-SVG-20010904/DTD/svg10.dtd">
<svg version="1.0" xmlns="http://www.w3.org/2000/svg" width="97px" height="89px" viewBox="0 0 970 890" preserveAspectRatio="xMidYMid meet">
<g id="layerbg1" fill="#000000" stroke="none">
 <path d="M325 849 c-33 -4 -79 -6 -103 -2 -48 6 -82 -15 -82 -51 0 -31 39 -128 61 -151 16 -18 59 -123 59 -145 0 -10 -81 -30 -123 -30 -50 0 -61 -19 -54 -96 8 -104 37 -148 127 -196 l75 -41 224 -14 223 -13 54 24 c70 32 104 94 104 189 0 35 3 66 6 70 3 3 7 38 7 79 l2 73 -45 3 c-24 2 -64 -2 -87 -9 -24 -6 -45 -10 -48 -8 -2 3 7 25 20 51 40 79 89 248 76 261 -14 14 -405 19 -496 6z m441 -25 l32 -6 -33 -101 c-17 -56 -42 -119 -53 -140 -15 -26 -22 -55 -22 -93 0 -58 0 -58 -62 -69 l-37 -6 -3 48 -3 48 -78 -2 c-93 -3 -112 -12 -127 -58 -11 -32 -15 -36 -43 -33 -23 2 -33 9 -35 23 -2 11 -6 27 -9 35 -3 8 -5 19 -4 24 4 17 -31 111 -55 148 -32 50 -67 145 -60 163 6 17 42 20 52 4 4 -6 16 -8 33 -3 14 4 51 10 81 14 69 8 384 11 426 4z m108 -351 c-3 -27 -7 -49 -8 -49 0 -1 -20 -4 -43 -7 -36 -4 -44 -2 -58 19 -8 13 -22 24 -29 24 -9 0 -12 7 -9 18 5 21 57 39 116 41 l38 1 -7 -47z m-314 -24 c0 -17 5 -39 11 -50 9 -17 17 -19 57 -14 26 4 60 16 75 27 36 25 49 14 45 -38 -5 -63 -35 -72 -272 -80 -187 -7 -200 -6 -212 11 -28 37 -8 109 22 84 7 -6 32 -9 55 -7 39 3 45 7 63 43 22 42 42 50 124 54 29 1 32 -1 32 -30z m-290 1 c0 -6 -11 -21 -25 -34 -14 -14 -25 -34 -25 -50 0 -21 -5 -26 -24 -26 -14 0 -36 -4 -49 -9 -30 -12 -37 0 -37 65 l0 44 43 1 c23 0 51 4 62 9 28 12 55 12 55 0z m590 -125 c0 -89 -26 -140 -85 -166 -42 -19 -51 -19 -267 -5 -221 14 -223 14 -286 47 -46 24 -69 43 -82 69 l-18 35 54 3 c43 2 54 0 54 -12 0 -34 38 -39 240 -32 107 3 211 10 229 16 44 12 81 47 81 76 0 25 12 32 53 33 27 1 27 0 27 -64z"/>
 <path d="M558 703 c-8 -10 -18 -25 -21 -33 -5 -11 -6 -9 -6 5 2 34 0 38 -15 26 -10 -9 -20 -9 -38 -1 -15 7 -41 8 -73 3 -41 -7 -51 -12 -53 -31 -4 -30 16 -55 40 -49 10 3 21 1 24 -4 3 -5 -2 -10 -10 -10 -9 -1 -21 -2 -27 -3 -7 0 -17 -9 -23 -19 -9 -15 -6 -22 19 -42 28 -23 30 -23 48 -7 13 12 33 16 67 14 27 -1 52 3 55 8 5 8 11 7 21 -1 22 -18 46 8 43 45 -2 17 1 37 5 44 5 8 1 21 -11 34 -10 11 -17 23 -15 26 8 15 -16 11 -30 -5z"/>
 </g>
<g id="layerbg2" fill="#ffffff" stroke="none">
 <path d="M0 445 l0 -445 485 0 485 0 0 445 0 445 -485 0 -485 0 0 -445z"/>
 </g>
<g id="layer101" fill="#000000" stroke="none">
 <path d="M325 839 c-33 -4 -79 -6 -103 -2 -48 6 -72 -7 -72 -41 0 -31 39 -128 61 -152 10 -11 30 -52 43 -90 14 -38 25 -64 25 -58 2 21 -37 122 -62 160 -13 22 -33 62 -43 91 -14 43 -15 54 -5 67 16 19 42 21 58 5 8 -8 21 -8 50 2 27 9 108 13 280 13 133 1 244 -1 247 -5 8 -8 -57 -208 -82 -252 -16 -27 -22 -54 -22 -97 0 -66 -2 -67 -80 -73 l-35 -2 -3 49 -3 49 -75 -7 c-97 -9 -102 -11 -115 -57 -11 -36 -15 -39 -50 -39 -34 0 -39 3 -45 28 -12 55 -12 55 -57 47 -23 -5 -64 -11 -92 -14 l-50 -6 1 -70 c0 -109 25 -151 116 -199 l73 -38 223 -14 c221 -14 223 -14 273 7 67 29 99 88 99 182 0 35 3 66 6 69 3 3 7 38 9 77 l5 71 -48 0 c-26 0 -68 -7 -94 -15 -56 -16 -58 -12 -24 56 32 62 90 248 82 257 -10 10 -421 11 -491 1z m561 -346 c-3 -21 -6 -48 -6 -60 0 -20 -5 -23 -37 -23 -21 0 -44 -4 -51 -9 -8 -5 6 -6 35 -4 l48 5 -5 -78 c-6 -99 -28 -141 -91 -172 l-46 -23 -224 14 -224 14 -65 35 c-85 45 -113 92 -114 187 l-1 66 60 8 c94 13 108 13 112 0 3 -7 -7 -24 -21 -38 -16 -16 -26 -37 -26 -55 0 -27 -3 -30 -32 -31 -18 0 -42 -4 -53 -9 -12 -5 0 -6 33 -3 48 5 54 4 59 -16 3 -12 16 -24 31 -28 34 -8 390 5 429 16 49 14 73 41 73 82 0 50 -8 69 -36 79 -19 8 -22 14 -15 32 9 25 64 45 130 47 l44 1 -7 -37z m-316 -40 c0 -56 10 -66 56 -58 64 11 75 16 82 36 7 18 9 18 30 3 19 -13 22 -24 20 -56 -5 -63 -35 -80 -160 -89 -139 -11 -320 -11 -336 0 -8 4 -16 26 -19 48 -4 33 -1 45 16 62 25 25 31 26 31 6 0 -11 12 -15 45 -15 43 0 46 2 61 40 10 26 24 42 38 45 11 2 30 6 41 8 11 3 37 5 58 6 36 1 37 0 37 -36z"/>
 <path d="M562 698 c-7 -7 -12 -17 -12 -24 0 -6 -7 -18 -16 -25 -15 -13 -17 -11 -12 19 3 20 1 29 -4 24 -5 -5 -8 -22 -6 -38 3 -26 7 -29 42 -32 37 -3 37 -4 18 -18 -20 -14 -52 -10 -52 7 0 5 -8 8 -17 7 -10 -1 -27 0 -38 0 -18 2 -18 3 3 18 26 18 29 49 6 58 -25 9 -54 7 -54 -5 0 -5 5 -7 10 -4 15 10 50 -5 50 -20 0 -13 -29 -35 -46 -35 -3 0 -4 8 -2 18 6 21 -20 42 -52 42 -15 0 -20 -7 -20 -25 0 -30 24 -43 45 -25 12 10 15 9 15 -4 0 -9 6 -16 13 -16 8 0 14 -6 14 -13 0 -9 -10 -12 -29 -9 -24 4 -29 1 -26 -13 2 -10 -3 -20 -11 -23 -10 -3 -11 2 -6 18 5 15 4 20 -4 16 -18 -11 -13 -37 9 -43 11 -3 20 -10 20 -16 0 -5 9 -2 21 9 15 14 33 18 69 16 27 -1 52 3 55 8 5 8 11 7 20 0 20 -17 35 -3 35 31 0 26 -3 29 -30 29 -16 0 -30 4 -30 8 0 17 13 21 31 9 29 -18 48 6 26 31 -9 10 -14 22 -10 25 3 4 2 7 -3 7 -6 0 -15 -5 -22 -12z m-159 -24 c9 -10 -4 -34 -19 -34 -8 0 -14 9 -14 20 0 19 19 27 33 14z m197 -15 c0 -5 -7 -9 -15 -9 -8 0 -15 7 -15 15 0 9 6 12 15 9 8 -4 15 -10 15 -15z m-120 -63 c0 -8 -4 -18 -10 -21 -5 -3 -10 3 -10 14 0 12 5 21 10 21 6 0 10 -6 10 -14z m50 -11 c10 -13 9 -15 -8 -15 -22 0 -36 13 -25 24 10 10 20 7 33 -9z m60 6 c0 -6 -4 -13 -10 -16 -5 -3 -10 1 -10 9 0 9 5 16 10 16 6 0 10 -4 10 -9z m-160 -15 c0 -8 -4 -18 -10 -21 -5 -3 -10 3 -10 14 0 12 5 21 10 21 6 0 10 -6 10 -14z"/>
 </g>
<g id="layer102" fill="#ffffff" stroke="none">
 <path d="M0 445 l0 -445 485 0 485 0 0 445 0 445 -485 0 -485 0 0 -445z m816 393 c8 -9 -50 -195 -82 -257 -34 -68 -32 -72 24 -56 26 8 68 15 94 15 l48 0 -5 -71 c-2 -39 -6 -74 -9 -77 -3 -3 -6 -34 -6 -69 0 -94 -32 -153 -99 -182 -50 -21 -52 -21 -273 -7 l-223 14 -73 38 c-91 48 -116 90 -116 199 l-1 70 50 6 c28 3 69 9 92 14 45 8 45 8 57 -47 6 -25 11 -28 45 -28 35 0 39 3 50 39 13 46 18 48 115 57 l75 7 3 -49 3 -49 35 2 c78 6 80 7 80 73 0 43 6 70 22 97 25 44 90 244 82 252 -3 4 -114 6 -247 5 -172 0 -253 -4 -280 -13 -29 -10 -42 -10 -50 -2 -16 16 -42 14 -58 -5 -10 -13 -9 -24 5 -67 10 -29 30 -69 43 -91 25 -38 64 -139 62 -160 0 -6 -11 20 -25 58 -13 38 -33 79 -43 90 -22 24 -61 121 -61 152 0 34 24 47 72 41 24 -4 70 -2 103 2 70 10 481 9 491 -1z m-229 -135 c-4 -3 1 -15 10 -25 22 -25 3 -49 -26 -31 -18 12 -31 8 -31 -9 0 -4 14 -8 30 -8 27 0 30 -3 30 -29 0 -34 -15 -48 -35 -31 -9 7 -15 8 -20 0 -3 -5 -28 -9 -55 -8 -36 2 -54 -2 -69 -16 -12 -11 -21 -14 -21 -9 0 6 -9 13 -20 16 -22 6 -27 32 -9 43 8 4 9 -1 4 -16 -5 -16 -4 -21 6 -18 8 3 13 13 11 23 -3 14 2 17 26 13 19 -3 29 0 29 9 0 7 -6 13 -14 13 -7 0 -13 7 -13 16 0 13 -3 14 -15 4 -21 -18 -45 -5 -45 25 0 18 5 25 20 25 32 0 58 -21 52 -42 -2 -10 -1 -18 2 -18 17 0 46 22 46 35 0 15 -35 30 -50 20 -5 -3 -10 -1 -10 4 0 12 29 14 54 5 23 -9 20 -40 -6 -58 -21 -15 -21 -16 -3 -18 11 0 28 -1 38 0 9 1 17 -2 17 -7 0 -17 32 -21 52 -7 19 14 19 15 -18 18 -35 3 -39 6 -42 32 -2 16 1 33 6 38 5 5 7 -4 4 -24 -5 -30 -3 -32 12 -19 9 7 16 19 16 25 0 14 20 36 34 36 5 0 6 -3 3 -7z"/>
 <path d="M766 516 c-50 -16 -68 -52 -32 -66 28 -10 36 -29 36 -79 0 -41 -24 -68 -73 -82 -39 -11 -395 -24 -429 -16 -15 4 -28 16 -31 28 -5 20 -11 21 -59 16 -33 -3 -45 -2 -33 3 11 5 35 9 53 9 29 1 32 4 32 31 0 18 10 39 26 55 14 14 24 31 21 38 -4 13 -18 13 -112 0 l-60 -8 1 -66 c1 -95 29 -142 114 -187 l65 -35 224 -14 224 -14 46 23 c63 31 85 73 91 172 l5 78 -48 -5 c-29 -2 -43 -1 -35 4 7 5 30 9 51 9 32 0 37 3 37 23 0 12 3 39 6 60 l7 37 -44 -1 c-24 -1 -62 -7 -83 -13z"/>
 <path d="M475 483 c-11 -2 -30 -6 -41 -8 -14 -3 -28 -19 -38 -45 -15 -38 -18 -40 -61 -40 -33 0 -45 4 -45 15 0 20 -6 19 -31 -6 -17 -17 -20 -29 -16 -62 3 -22 11 -44 19 -48 16 -11 197 -11 336 0 125 9 155 26 160 89 2 32 -1 43 -20 56 -21 15 -23 15 -30 -3 -7 -20 -18 -25 -82 -36 -46 -8 -56 2 -56 58 0 36 -1 37 -37 36 -21 -1 -47 -3 -58 -6z"/>
 <path d="M370 660 c0 -23 25 -27 33 -6 7 16 -1 26 -20 26 -7 0 -13 -9 -13 -20z"/>
 <path d="M570 665 c0 -8 7 -15 15 -15 8 0 15 4 15 9 0 5 -7 11 -15 15 -9 3 -15 0 -15 -9z"/>
 <path d="M460 589 c0 -11 5 -17 10 -14 6 3 10 13 10 21 0 8 -4 14 -10 14 -5 0 -10 -9 -10 -21z"/>
 <path d="M497 594 c-11 -11 3 -24 25 -24 17 0 18 2 8 15 -13 16 -23 19 -33 9z"/>
 <path d="M570 584 c0 -8 5 -12 10 -9 6 3 10 10 10 16 0 5 -4 9 -10 9 -5 0 -10 -7 -10 -16z"/>
 <path d="M410 569 c0 -11 5 -17 10 -14 6 3 10 13 10 21 0 8 -4 14 -10 14 -5 0 -10 -9 -10 -21z"/>
 </g>

</svg>