<?xml version="1.0" encoding="utf-8"?>
<!-- Generator: Adobe Illustrator 21.1.0, SVG Export Plug-In . SVG Version: 6.00 Build 0)  -->
<svg version="1.1" id="圖層_1" xmlns="http://www.w3.org/2000/svg" xmlns:xlink="http://www.w3.org/1999/xlink" x="0px" y="0px"
	 viewBox="0 0 1005 250" style="enable-background:new 0 0 1005 250;" xml:space="preserve">
<style type="text/css">
	.st0{fill:#FFFFFF;}
</style>
<g>
	<g>
		<path class="st0" d="M473.6,152c0-17.8,0-35.6,0-53.4c19.4,0,38.8,0,58.2,0c0,17.8,0,35.6,0,53.4C512.4,152,493,152,473.6,152z
			 M487.9,136.9c-1.1,0-2.2,0-3.2,0c-2,0-4-0.3-6,0.1c-1.2,0.2-2.9,1.3-3.2,2.3c-0.6,1.9,1,2.8,2.8,3.1c1.1,0.2,2.1,0.6,3.2,0.6
			c11,0.3,21.9,0.6,32.9,0.8c3,0.1,6-0.2,9-0.4c0.9-0.1,2.3-0.8,2.3-1.3c0.1-0.9-0.5-2.1-1.2-2.7c-1-0.7-2.3-1.1-3.6-1.3
			c-3.4-0.5-6.8-0.9-10.1-1.3c0.5-4.3,1-8.5,1.3-12.7c0.3-4.4,2.5-7,7.1-7.9c-0.3,4.5-0.8,8.9-0.9,13.4c0,1.3,0.7,2.7,1.3,3.9
			c0.1,0.3,2,0.1,2.1-0.1c0.4-1.3,0.8-2.8,0.6-4.1c-0.2-2.2-1-4.3-1.1-6.5c-0.1-2.5,0.4-5,0.5-7.4c0.1-1.5,0-3-2.3-3
			c-9.3,0.2-18.6,0.7-27.8,0.4c-4.1-0.1-6.8,1.7-9.5,4.1c-0.6,0.5-0.8,1.5-1.2,2.2c0.8,0.4,1.7,0.8,2.5,1c0.9,0.2,1.9-0.1,2.7,0.2
			c0.7,0.2,1.7,1,1.7,1.5C487.9,126.7,487.9,131.7,487.9,136.9z"/>
		<path d="M487.9,136.9c0-5.3,0.1-10.2-0.1-15.2c0-0.5-1-1.3-1.7-1.5c-0.8-0.3-1.8,0-2.7-0.2c-0.9-0.2-1.7-0.7-2.5-1
			c0.4-0.8,0.6-1.7,1.2-2.2c2.7-2.4,5.4-4.1,9.5-4.1c9.3,0.2,18.5-0.2,27.8-0.4c2.3-0.1,2.4,1.4,2.3,3c-0.1,2.5-0.6,5-0.5,7.4
			c0.1,2.2,0.9,4.3,1.1,6.5c0.1,1.4-0.2,2.8-0.6,4.1c-0.1,0.3-1.9,0.4-2.1,0.1c-0.6-1.2-1.3-2.6-1.3-3.9c0.1-4.5,0.6-8.9,0.9-13.4
			c-4.5,0.9-6.7,3.6-7.1,7.9c-0.3,4.2-0.8,8.3-1.3,12.7c3.3,0.4,6.7,0.8,10.1,1.3c1.2,0.2,2.6,0.6,3.6,1.3c0.7,0.5,1.3,1.8,1.2,2.7
			c-0.1,0.5-1.5,1.2-2.3,1.3c-3,0.3-6,0.5-9,0.4c-11-0.2-21.9-0.5-32.9-0.8c-1.1,0-2.1-0.4-3.2-0.6c-1.8-0.3-3.4-1.2-2.8-3.1
			c0.3-1,2-2.1,3.2-2.3c1.9-0.4,4-0.1,6-0.1C485.7,136.9,486.8,136.9,487.9,136.9z M490.6,120.5c0,5.4-0.1,10.6,0.1,15.9
			c0,0.9,1.4,2.3,2.3,2.4c4.9,0.7,9.8,1.1,14.8,1.6c0.8-7.1,1.5-13.4,2.2-19.9C503.1,120.5,496.8,120.5,490.6,120.5z M513.8,116.8
			c0-0.5,0-0.9-0.1-1.4c-8.3,0-16.5-0.1-24.8,0.1c-1.1,0-2.2,1-3.3,1.6c0.1,0.2,0.2,0.5,0.2,0.7
			C495.2,117.3,504.5,118.6,513.8,116.8z M479,140.4c4,0.5,8.1,1,12.1,1.4c0-0.3,0.1-0.5,0.1-0.8C487.7,139.1,484.2,138.8,479,140.4
			z M510.5,141.6c2,0,3.6,0.1,5.1,0c1.6-0.1,3.1-0.4,4.9-0.7C516,139,512.1,139.1,510.5,141.6z"/>
		<path class="st0" d="M490.6,120.5c6.2,0,12.5,0,19.4,0c-0.7,6.4-1.4,12.8-2.2,19.9c-5-0.5-9.9-0.9-14.8-1.6
			c-0.9-0.1-2.3-1.5-2.3-2.4C490.4,131.1,490.6,125.9,490.6,120.5z"/>
		<path class="st0" d="M513.8,116.8c-9.2,1.9-18.6,0.5-27.9,1c-0.1-0.2-0.2-0.5-0.2-0.7c1.1-0.5,2.2-1.6,3.3-1.6
			c8.3-0.1,16.5-0.1,24.8-0.1C513.7,115.8,513.7,116.3,513.8,116.8z"/>
		<path class="st0" d="M479,140.4c5.2-1.7,8.6-1.3,12.2,0.6c0,0.3-0.1,0.5-0.1,0.8C487.1,141.4,483.1,140.9,479,140.4z"/>
		<path class="st0" d="M510.5,141.6c1.6-2.5,5.5-2.6,10.1-0.7c-1.8,0.2-3.4,0.6-4.9,0.7C514.1,141.7,512.5,141.6,510.5,141.6z"/>
	</g>
</g>
</svg>
